<?xml version="1.0" encoding="UTF-8"?>
<svg id="_レイヤー_2" data-name="レイヤー_2" xmlns="http://www.w3.org/2000/svg" viewBox="0 0 1056 193">
  <defs>
    <style>
      .cls-1 {
        fill: none;
      }
    </style>
  </defs>
  <g id="_レイヤー_2-2" data-name="レイヤー_2">
    <g>
      <g>
        <path d="M242.4,79.26c7.33,5.46,9.52,12.17,9.52,30.73,0,20.28-1.87,27.3-8.58,32.76-7.02,5.77-16.22,7.33-43.52,7.33s-36.81-1.56-43.83-7.33c-6.86-5.62-8.58-12.48-8.58-33.85,0-17.32,2.18-24.33,9.52-29.64,6.86-4.99,17.63-6.71,42.74-6.71s35.88,1.72,42.74,6.71ZM175.01,111.86c0,9.67,1.25,12.95,5.77,14.98,3.59,1.72,9.83,2.5,19.03,2.5,20.9,0,24.49-2.65,24.49-18.25,0-9.67-1.56-13.42-6.24-15.44-3.43-1.56-10.14-2.34-18.25-2.34-21.06,0-24.8,2.81-24.8,18.56Z"/>
        <path d="M596.04,124.66c-2.03,20.44-12.17,25.43-51.63,25.43-21.37,0-31.51-1.87-38.22-6.86-7.18-5.46-9.36-12.79-9.36-31.67,0-19.81,2.18-27.14,9.98-32.6,7.18-4.99,16.53-6.55,40.4-6.55s32.92,1.4,39.62,6.4c7.18,5.3,9.83,13.73,9.83,31.04,0,.94,0,4.37-.15,7.49h-72.07c0,7.49.78,9.98,3.43,12.01,2.96,2.18,8.74,3.12,18.72,3.12,13.69,0,18.72-.75,20.8-4.16,1.4-2.29,3.91-3.64,6.59-3.64h22.06ZM568.89,102.19c-.15-5.77-.47-7.18-2.18-8.89-2.5-2.65-8.11-3.74-19.03-3.74-18.56,0-22.93,2.34-23.25,12.64h44.46Z"/>
        <path d="M734.7,55.28v17.4h36.39c4.37,0,7.91,3.57,7.91,7.98v12.29h-44.3v22.03c0,7.98.16,9.1,1.26,11.17,1.42,2.71,4.27,3.83,9.81,3.83s8.86-1.12,10.13-3.83c.5-.92.78-1.54.93-3.05.42-4.07,3.81-7.17,7.87-7.17h17.94c-.31,14.36-1.42,18.99-5.69,24.58-5.7,7.18-14.24,9.58-33.54,9.58-17.88,0-25.16-1.6-30.69-7.02-3.96-3.83-5.38-7.98-5.85-15.96q-.16-2.4-.16-12.13v-22.03h-14.71v-12.29c0-4.41,3.54-7.98,7.91-7.98h6.8v-9.42c0-4.41,3.54-7.98,7.91-7.98h20.09Z"/>
        <path d="M895.85,124.66c-2.03,20.44-12.17,25.43-51.63,25.43-21.37,0-31.51-1.87-38.22-6.86-7.18-5.46-9.36-12.79-9.36-31.67,0-19.81,2.18-27.14,9.98-32.6,7.18-4.99,16.53-6.55,40.4-6.55s32.92,1.4,39.62,6.4c7.18,5.3,9.83,13.73,9.83,31.04,0,.94,0,4.37-.15,7.49h-72.07c0,7.49.78,9.98,3.43,12.01,2.96,2.18,8.74,3.12,18.72,3.12,13.69,0,18.72-.75,20.8-4.16,1.4-2.29,3.91-3.64,6.59-3.64h22.06ZM868.71,102.19c-.15-5.77-.47-7.18-2.18-8.89-2.5-2.65-8.11-3.74-19.03-3.74-18.56,0-22.93,2.34-23.25,12.64h44.46Z"/>
        <path d="M1014.37,148.21h-26.05v-9.67h-1.4c-5.3,8.89-12.64,11.54-32.6,11.54s-29.48-2.03-35.88-7.8c-6.08-5.62-7.95-13.1-7.95-31.51s2.96-27.61,10.76-32.76c6.71-4.37,14.35-5.62,33.38-5.62s25.74,2.5,31.04,11.85h1.09v-32.29c0-4.31,3.49-7.8,7.8-7.8h19.81v104.05ZM938.09,110.46c0,16.38,3.12,18.88,23.87,18.88,9.83,0,17.16-1.09,20.43-3.28,3.28-2.03,4.52-5.93,4.52-14.66,0-15.44-3.59-18.25-23.24-18.25-21.84,0-25.58,2.5-25.58,17.32Z"/>
        <path d="M133.4,131.65c0-4.42-3.66-7.95-8.08-7.79-4.67.17-10.6.18-18.16.18-33.38,0-33.85-.31-33.85-26.99,0-15.75,1.25-21.84,4.99-24.96,3.12-2.5,8.89-3.12,28.7-3.12,13.09,0,21.44.35,26.4,1.21v-19.41c0-4.27-3.43-7.75-7.7-7.8-2.95-.04-6.15-.05-9.66-.05-53.66,0-65.21,2.65-71.13,15.75-2.5,5.93-3.28,14.35-3.28,38.53,0,12.32.16,20.9.62,25.58,1.25,11.7,4.68,17.78,12.32,21.68,8.58,4.37,21.68,5.62,61.31,5.62,6.77,0,12.52-.09,17.51-.28v-18.16Z"/>
        <path d="M359.15,80.26c-6.35-6.74-12.85-7.63-29.02-7.7-.04,0-.08,0-.12,0h-56.2c-4.36,0-7.9,3.67-7.9,8.2v69.33h27.97v-30.98c0-14.26.63-17.87,4.11-21.64,3.32-3.61,8.85-5.08,19.12-5.08s15.8,1.15,18.81,4.26c3,2.95,3.48,5.74,3.48,18.19v35.24h27.97v-35.24c0-21.31-1.42-27.21-8.22-34.59Z"/>
        <path d="M474.61,80.26c-6.52-6.92-12.16-7.68-29.28-7.7-.01,0-.02,0-.03,0h-57.35c-3.64,0-6.58,3.06-6.58,6.83v70.7h27.97v-30.98c0-14.26.63-17.87,4.11-21.64,3.32-3.61,8.85-5.08,19.12-5.08s15.8,1.15,18.81,4.26c3,2.95,3.48,5.74,3.48,18.19v35.24h27.97v-35.24c0-21.31-1.42-27.21-8.22-34.59Z"/>
        <path d="M677.98,136.75c0-3.2-2.69-5.75-5.93-5.64-3.42.12-7.78.13-13.33.13-24.49,0-24.83-.23-24.83-19.52,0-11.4.92-15.8,3.66-18.06,2.29-1.81,6.52-2.26,21.06-2.26,9.6,0,15.73.25,19.37.88v-14.04c0-3.09-2.52-5.61-5.65-5.64-2.16-.03-4.52-.04-7.08-.04-39.37,0-47.84,1.92-52.19,11.4-1.83,4.29-2.4,10.38-2.4,27.87,0,8.92.11,15.12.46,18.51.92,8.46,3.43,12.86,9.04,15.69,6.29,3.16,15.91,4.06,44.98,4.06,4.96,0,9.18-.07,12.85-.2v-13.13Z"/>
      </g>
      <rect class="cls-1" width="1056" height="193"/>
    </g>
  </g>
</svg>